<svg width="34" height="34" viewBox="0 0 34 34" fill="none" xmlns="http://www.w3.org/2000/svg">
  <path fill-rule="evenodd" clip-rule="evenodd"
    d="M7.26983 3.05819C6.05377 3.90849 4.95412 4.91383 3.99953 6.04554C7.90044 5.68338 12.8564 6.27474 18.6102 9.15168C24.7545 12.2238 29.7022 12.3276 33.1456 11.6634C32.8331 10.7175 32.4397 9.80831 31.9739 8.94402C28.0321 9.35976 22.9789 8.80947 17.0897 5.86498C13.3501 3.99515 10.0536 3.22491 7.26983 3.05819ZM29.6713 5.66665C26.5585 2.18875 22.0349 0 17 0C15.5214 0 14.0868 0.188791 12.7191 0.543558C14.5714 1.04897 16.5392 1.78839 18.6102 2.82393C22.9219 4.97975 26.6444 5.67389 29.6713 5.66665ZM33.8818 14.9839C29.7219 15.8053 23.9775 15.6366 17.0897 12.1927C10.6505 8.97309 5.52537 9.01364 2.06882 9.78179C1.8904 9.8214 1.71619 9.86305 1.54618 9.9064C1.09363 10.8906 0.73239 11.9256 0.473197 13.0003C0.750029 12.9264 1.03609 12.8561 1.33124 12.7904C5.52464 11.8586 11.4496 11.8991 18.6102 15.4794C25.0496 18.6991 30.1747 18.6585 33.6313 17.8904C33.7497 17.8641 33.8664 17.8369 33.9811 17.8088C33.9937 17.5408 34 17.2711 34 17C34 16.3179 33.9599 15.6451 33.8818 14.9839ZM33.4261 21.3964C29.3066 22.1167 23.7294 21.8402 17.0897 18.5205C10.6505 15.3008 5.52537 15.3414 2.06882 16.1095C1.30156 16.28 0.611354 16.4876 0.0024905 16.7068C0.000830451 16.8043 0 16.9021 0 17C0 26.3888 7.61116 34 17 34C24.8685 34 31.4885 28.6543 33.4261 21.3964Z"
    fill="white" id="logosvg" />
</svg>