<svg width="107" height="131" viewBox="0 0 107 131" fill="none" xmlns="http://www.w3.org/2000/svg">
<path d="M42.6906 89.9159C41.3969 90.2441 40.4267 90.5722 39.4564 91.2286C38.1628 89.2596 37.1926 86.9625 35.899 85.3217C33.6351 82.0401 31.0477 79.0866 28.7838 75.805C25.2263 70.8826 22.3156 65.9602 21.0219 59.7251C18.1112 44.3015 26.5199 29.2061 41.0735 23.2992C60.1549 15.4233 82.1471 28.5498 85.0578 49.2239C86.3515 58.7406 83.4407 66.6165 78.2661 74.1642C76.0022 77.4458 73.0915 80.7274 70.8276 84.3372C69.2106 86.6343 68.2404 88.9314 66.6233 91.2286C65.9765 92.213 65.3296 93.1975 64.3594 93.5257C56.9208 96.4791 49.4823 99.1044 42.0438 101.73C41.0736 102.058 40.4267 101.73 40.1033 101.073C39.7799 100.089 39.7799 99.1044 40.7502 98.7763C41.397 98.4481 42.0438 98.1199 42.6906 98.1199C49.1589 95.8228 55.6271 93.5257 62.0954 90.9004C62.7422 90.5722 63.3891 89.9159 63.7125 89.2596C66.2998 84.3372 69.534 80.3993 72.7681 75.805C76.0023 71.5389 78.913 67.601 80.2066 62.3504C83.4408 51.8492 81.1769 42.6607 74.0618 34.7849C65.9764 25.5963 55.6272 22.6429 43.9843 26.2527C32.3414 29.8624 25.8731 38.0665 23.6092 50.2084C21.9921 58.7406 24.9028 65.9602 29.754 72.5234C32.6647 76.4613 35.5755 80.3993 38.4862 84.3372C40.4267 85.6498 41.3969 87.6188 42.6906 89.9159Z" fill="#1640C1"/>
<path d="M41.0732 122.404C40.7498 122.076 40.103 121.747 40.103 121.091C40.103 120.435 40.4264 119.778 40.7498 119.122C40.7498 118.794 41.3966 118.794 41.72 118.794C48.8351 116.169 56.2737 113.543 63.3888 110.918C65.0059 110.262 65.6527 110.59 65.9761 111.574C66.2995 112.559 65.6527 113.543 64.359 114.2C56.9205 116.825 49.8054 119.45 42.3669 122.404C42.0435 122.076 41.72 122.076 41.0732 122.404Z" fill="#1640C1"/>
<path d="M41.0732 111.575C40.7498 111.247 40.103 110.919 40.103 110.262C40.103 109.606 40.4264 108.95 40.7498 108.294C40.7498 107.965 41.3966 107.965 41.72 107.965C48.8351 105.34 56.2737 102.715 63.3888 100.09C65.0059 99.4332 65.6527 99.7613 65.9761 100.746C66.2995 101.73 65.9761 102.715 64.359 103.371C56.9205 105.996 49.8054 108.95 42.3669 111.575C42.0435 111.575 41.72 111.575 41.0732 111.575Z" fill="#1640C1"/>
<path d="M64.3589 120.763C62.0951 128.639 49.4819 133.233 41.72 128.967C49.1585 126.342 56.597 123.388 64.3589 120.763Z" fill="#1640C1"/>
<path d="M54.6566 5.9069C54.6566 7.21954 54.6566 8.53219 54.6566 9.84483C54.6566 10.8293 54.0098 11.4856 53.0396 11.4856C52.0693 11.4856 51.4225 10.8293 51.4225 9.84483C51.4225 7.21954 51.4225 4.59426 51.4225 1.64081C51.4225 0.656322 52.0693 0 53.0396 0C54.0098 0 54.6566 0.656322 54.6566 1.64081C54.6566 2.95345 54.6566 4.59425 54.6566 5.9069Z" fill="#1640C1"/>
<path d="M5.82141 51.8496C7.11507 51.8496 8.40876 51.8496 9.70242 51.8496C10.9961 51.8496 11.6429 52.5059 11.6429 53.4904C11.6429 54.4749 10.9961 55.1312 9.70242 55.1312C7.11511 55.1312 4.52781 55.1312 1.9405 55.1312C0.646848 55.1312 0 54.4749 0 53.4904C0 52.5059 0.646848 51.8496 1.9405 51.8496C3.23416 51.8496 4.52776 51.8496 5.82141 51.8496Z" fill="#1640C1"/>
<path d="M100.258 55.4593C98.9644 55.4593 97.6707 55.4593 96.377 55.4593C95.4068 55.4593 94.7599 54.803 94.7599 53.8185C94.7599 52.8341 95.4068 52.1777 96.377 52.1777C98.9643 52.1777 101.875 52.1777 104.462 52.1777C105.433 52.1777 106.079 52.8341 106.079 53.8185C106.079 54.803 105.433 55.4593 104.462 55.4593C102.845 55.4593 101.552 55.4593 100.258 55.4593Z" fill="#1640C1"/>
<path d="M16.1703 14.439C16.8172 14.7671 17.1406 15.0953 17.464 15.4234C19.4045 17.3924 21.0216 19.0332 22.9621 21.0022C23.9323 21.9867 23.9323 22.643 22.9621 23.6275C22.3152 24.2838 21.3449 24.2838 20.3747 23.6275C18.4342 21.6585 16.4938 20.0177 14.8767 18.0487C14.5533 17.7206 14.2299 16.7361 14.5533 16.0798C14.8767 15.0953 15.8469 14.7671 16.1703 14.439Z" fill="#1640C1"/>
<path d="M83.7646 83.0254C84.4114 83.3536 84.7348 83.6817 85.0582 84.0099C86.9987 85.6507 88.6158 87.6197 90.5563 89.2605C91.5265 90.2449 91.5265 91.2294 90.8797 91.8857C90.2329 92.5421 89.2626 92.5421 88.2923 91.5576C86.3519 89.5886 84.7349 87.9478 82.7944 85.9788C82.471 85.6507 82.1475 84.6662 82.4709 84.0099C82.4709 83.6817 83.1177 83.3536 83.7646 83.0254Z" fill="#1640C1"/>
<path d="M91.5257 16.4081C91.2022 17.0644 90.8789 17.3926 90.5555 17.7207C88.615 19.6897 86.9979 21.3305 85.0574 23.2995C84.4106 23.9558 83.4403 24.2839 82.4701 23.2995C81.8233 22.6431 81.8233 21.6587 82.4701 20.6742C84.4106 18.7052 86.0276 16.7362 87.9681 15.0954C88.2915 14.7673 89.2618 14.4391 89.9086 14.7673C90.5554 15.0954 90.8788 16.0799 91.5257 16.4081Z" fill="#1640C1"/>
<path d="M16.1703 92.5411C15.8469 92.2129 15.2001 91.8848 14.8766 91.2285C14.5532 90.9003 14.8766 89.9158 14.8766 89.5877C16.8171 87.6187 18.7576 85.3216 21.0215 83.3526C21.6683 82.6963 22.6385 82.6963 23.2853 83.3526C23.9322 84.0089 23.9322 84.9934 23.2853 85.6497C21.3448 87.6187 19.4044 89.5877 17.4639 91.5566C17.1405 92.2129 16.8171 92.5411 16.1703 92.5411Z" fill="#1640C1"/>
</svg>
