<svg width="173" height="34" viewBox="0 0 173 34" fill="none" xmlns="http://www.w3.org/2000/svg">
<path fill-rule="evenodd" clip-rule="evenodd" d="M7.26983 3.05819C6.05377 3.90849 4.95412 4.91383 3.99953 6.04554C7.90044 5.68338 12.8564 6.27474 18.6102 9.15168C24.7545 12.2238 29.7022 12.3276 33.1456 11.6634C32.8331 10.7175 32.4397 9.80831 31.9739 8.94402C28.0321 9.35976 22.9789 8.80947 17.0897 5.86498C13.3501 3.99515 10.0536 3.22491 7.26983 3.05819ZM29.6713 5.66665C26.5585 2.18875 22.0349 0 17 0C15.5214 0 14.0868 0.188791 12.7191 0.543558C14.5714 1.04897 16.5392 1.78839 18.6102 2.82393C22.9219 4.97975 26.6444 5.67389 29.6713 5.66665ZM33.8818 14.9839C29.7219 15.8053 23.9775 15.6366 17.0897 12.1927C10.6505 8.97309 5.52537 9.01364 2.06882 9.78179C1.8904 9.8214 1.71619 9.86305 1.54618 9.9064C1.09363 10.8906 0.73239 11.9256 0.473197 13.0003C0.750029 12.9264 1.03609 12.8561 1.33124 12.7904C5.52464 11.8586 11.4496 11.8991 18.6102 15.4794C25.0496 18.6991 30.1747 18.6585 33.6313 17.8904C33.7497 17.8641 33.8664 17.8369 33.9811 17.8088C33.9937 17.5408 34 17.2711 34 17C34 16.3179 33.9599 15.6451 33.8818 14.9839ZM33.4261 21.3964C29.3066 22.1167 23.7294 21.8402 17.0897 18.5205C10.6505 15.3008 5.52537 15.3414 2.06882 16.1095C1.30156 16.28 0.611354 16.4876 0.0024905 16.7068C0.000830451 16.8043 0 16.9021 0 17C0 26.3888 7.61116 34 17 34C24.8685 34 31.4885 28.6543 33.4261 21.3964Z" fill="white"/>
<path d="M50.6595 12.1151V8.22727H66.1065V12.1151H60.7608V26H56.0052V12.1151H50.6595ZM69.8924 26.2083C69.0419 26.2083 68.2898 26.0694 67.636 25.7917C66.9881 25.5082 66.479 25.0801 66.1087 24.5074C65.7384 23.9346 65.5533 23.2057 65.5533 22.3205C65.5533 21.5915 65.6777 20.9696 65.9265 20.4547C66.1752 19.934 66.5224 19.5088 66.9678 19.179C67.4133 18.8493 67.9311 18.5976 68.5212 18.424C69.1171 18.2505 69.7593 18.1377 70.4477 18.0856C71.1941 18.0277 71.7929 17.9583 72.2441 17.8773C72.7012 17.7905 73.0309 17.6719 73.2334 17.5215C73.4359 17.3653 73.5371 17.1599 73.5371 16.9054V16.8706C73.5371 16.5235 73.4041 16.2574 73.138 16.0723C72.8718 15.8871 72.5305 15.7946 72.1139 15.7946C71.6569 15.7946 71.2837 15.8958 70.9945 16.0983C70.711 16.295 70.5403 16.5987 70.4825 17.0095H66.074C66.1318 16.1995 66.3893 15.4532 66.8463 14.7706C67.3092 14.0821 67.9832 13.5325 68.8683 13.1217C69.7535 12.7052 70.8585 12.4969 72.1834 12.4969C73.138 12.4969 73.9942 12.6097 74.7521 12.8353C75.51 13.0552 76.155 13.3647 76.6873 13.7639C77.2196 14.1573 77.6245 14.6201 77.9022 15.1524C78.1857 15.6789 78.3275 16.2516 78.3275 16.8706V26H73.8496V24.1255H73.7454C73.4793 24.6231 73.1553 25.0252 72.7735 25.3318C72.3974 25.6384 71.9664 25.8612 71.4804 26C71.0003 26.1388 70.4709 26.2083 69.8924 26.2083ZM71.4544 23.1883C71.8189 23.1883 72.1602 23.1131 72.4784 22.9627C72.8024 22.8122 73.0656 22.5953 73.2681 22.3118C73.4706 22.0283 73.5719 21.6841 73.5719 21.2791V20.1683C73.4446 20.2204 73.3086 20.2696 73.164 20.3159C73.0251 20.3621 72.8747 20.4055 72.7127 20.446C72.5565 20.4865 72.3887 20.5241 72.2094 20.5588C72.0358 20.5936 71.8536 20.6254 71.6627 20.6543C71.2924 20.7122 70.9887 20.8076 70.7515 20.9407C70.5201 21.068 70.3465 21.2271 70.2308 21.418C70.1209 21.6031 70.0659 21.8114 70.0659 22.0428C70.0659 22.4131 70.1961 22.6965 70.4564 22.8932C70.7168 23.0899 71.0494 23.1883 71.4544 23.1883ZM85.4066 8.22727V26H80.6163V8.22727H85.4066ZM92.6376 8.22727V26H87.8473V8.22727H92.6376ZM97.9942 30.9986C97.4446 30.9986 96.921 30.9552 96.4234 30.8684C95.9259 30.7874 95.4891 30.6746 95.113 30.53L96.1544 27.1282C96.5478 27.267 96.9065 27.3567 97.2305 27.3972C97.5603 27.4377 97.8409 27.4145 98.0723 27.3277C98.3095 27.241 98.4801 27.0761 98.5843 26.8331L98.6884 26.5901L94.0023 12.6705H99.0008L101.153 21.9039H101.292L103.479 12.6705H108.512L103.652 27.1108C103.409 27.8455 103.056 28.5051 102.594 29.0894C102.137 29.6795 101.535 30.1452 100.789 30.4866C100.042 30.8279 99.1108 30.9986 97.9942 30.9986ZM109.805 26V8.22727H122.302V12.1151H114.63V15.1697H121.538V19.0575H114.63V26H109.805ZM128.936 8.22727V26H124.146V8.22727H128.936ZM137.798 26.243C136.352 26.243 135.114 25.9566 134.084 25.3839C133.054 24.8053 132.265 24.0011 131.715 22.9713C131.165 21.9358 130.891 20.7353 130.891 19.3699C130.891 18.0046 131.165 16.807 131.715 15.7772C132.265 14.7416 133.054 13.9375 134.084 13.3647C135.114 12.7862 136.352 12.4969 137.798 12.4969C139.245 12.4969 140.483 12.7862 141.513 13.3647C142.542 13.9375 143.332 14.7416 143.882 15.7772C144.431 16.807 144.706 18.0046 144.706 19.3699C144.706 20.7353 144.431 21.9358 143.882 22.9713C143.332 24.0011 142.542 24.8053 141.513 25.3839C140.483 25.9566 139.245 26.243 137.798 26.243ZM137.833 22.7023C138.238 22.7023 138.588 22.5664 138.883 22.2945C139.178 22.0225 139.407 21.6349 139.569 21.1316C139.731 20.6283 139.812 20.0295 139.812 19.3352C139.812 18.6352 139.731 18.0364 139.569 17.5389C139.407 17.0355 139.178 16.6479 138.883 16.376C138.588 16.1041 138.238 15.9681 137.833 15.9681C137.405 15.9681 137.038 16.1041 136.731 16.376C136.424 16.6479 136.19 17.0355 136.028 17.5389C135.866 18.0364 135.785 18.6352 135.785 19.3352C135.785 20.0295 135.866 20.6283 136.028 21.1316C136.19 21.6349 136.424 22.0225 136.731 22.2945C137.038 22.5664 137.405 22.7023 137.833 22.7023ZM148.772 26L145.439 12.6705H150.23L151.757 20.7931H151.861L153.562 12.6705H158.214L159.984 20.7237H160.088L161.546 12.6705H166.336L163.004 26H157.832L155.957 18.8493H155.818L153.944 26H148.772ZM168.584 26.2777C167.913 26.2777 167.337 26.0434 166.857 25.5748C166.383 25.1004 166.148 24.5247 166.154 23.8478C166.148 23.1883 166.383 22.6242 166.857 22.1556C167.337 21.687 167.913 21.4527 168.584 21.4527C169.22 21.4527 169.781 21.687 170.267 22.1556C170.759 22.6242 171.008 23.1883 171.014 23.8478C171.008 24.2991 170.889 24.7099 170.658 25.0801C170.432 25.4446 170.137 25.7368 169.773 25.9566C169.408 26.1707 169.012 26.2777 168.584 26.2777Z" fill="white"/>
</svg>
