<svg width="123" height="30" viewBox="0 0 123 30" fill="none" xmlns="http://www.w3.org/2000/svg">
<path d="M0.659535 10.1151V6.22727H16.1065V10.1151H10.7608V24H6.00524V10.1151H0.659535ZM19.8924 24.2083C19.0419 24.2083 18.2898 24.0694 17.636 23.7917C16.9881 23.5082 16.479 23.0801 16.1087 22.5074C15.7384 21.9346 15.5533 21.2057 15.5533 20.3205C15.5533 19.5915 15.6777 18.9696 15.9265 18.4547C16.1752 17.934 16.5224 17.5088 16.9678 17.179C17.4133 16.8493 17.9311 16.5976 18.5212 16.424C19.1171 16.2505 19.7593 16.1377 20.4477 16.0856C21.1941 16.0277 21.7929 15.9583 22.2441 15.8773C22.7012 15.7905 23.0309 15.6719 23.2334 15.5215C23.4359 15.3653 23.5371 15.1599 23.5371 14.9054V14.8706C23.5371 14.5235 23.4041 14.2574 23.138 14.0723C22.8718 13.8871 22.5305 13.7946 22.1139 13.7946C21.6569 13.7946 21.2837 13.8958 20.9945 14.0983C20.711 14.295 20.5403 14.5987 20.4825 15.0095H16.074C16.1318 14.1995 16.3893 13.4532 16.8463 12.7706C17.3092 12.0821 17.9832 11.5325 18.8683 11.1217C19.7535 10.7052 20.8585 10.4969 22.1834 10.4969C23.138 10.4969 23.9942 10.6097 24.7521 10.8353C25.51 11.0552 26.155 11.3647 26.6873 11.7639C27.2196 12.1573 27.6245 12.6201 27.9022 13.1524C28.1857 13.6789 28.3275 14.2516 28.3275 14.8706V24H23.8496V22.1255H23.7454C23.4793 22.6231 23.1553 23.0252 22.7735 23.3318C22.3974 23.6384 21.9664 23.8612 21.4804 24C21.0003 24.1388 20.4709 24.2083 19.8924 24.2083ZM21.4544 21.1883C21.8189 21.1883 22.1602 21.1131 22.4784 20.9627C22.8024 20.8122 23.0656 20.5953 23.2681 20.3118C23.4706 20.0283 23.5719 19.6841 23.5719 19.2791V18.1683C23.4446 18.2204 23.3086 18.2696 23.164 18.3159C23.0251 18.3621 22.8747 18.4055 22.7127 18.446C22.5565 18.4865 22.3887 18.5241 22.2094 18.5588C22.0358 18.5936 21.8536 18.6254 21.6627 18.6543C21.2924 18.7122 20.9887 18.8076 20.7515 18.9407C20.5201 19.068 20.3465 19.2271 20.2308 19.418C20.1209 19.6031 20.0659 19.8114 20.0659 20.0428C20.0659 20.4131 20.1961 20.6965 20.4564 20.8932C20.7168 21.0899 21.0494 21.1883 21.4544 21.1883ZM35.4066 6.22727V24H30.6163V6.22727H35.4066ZM42.6376 6.22727V24H37.8473V6.22727H42.6376ZM47.9942 28.9986C47.4446 28.9986 46.921 28.9552 46.4234 28.8684C45.9259 28.7874 45.4891 28.6746 45.113 28.53L46.1544 25.1282C46.5478 25.267 46.9065 25.3567 47.2305 25.3972C47.5603 25.4377 47.8409 25.4145 48.0723 25.3277C48.3095 25.241 48.4801 25.0761 48.5843 24.8331L48.6884 24.5901L44.0023 10.6705H49.0008L51.153 19.9039H51.2918L53.4787 10.6705H58.512L53.6523 25.1108C53.4093 25.8455 53.0564 26.5051 52.5936 27.0894C52.1365 27.6795 51.5348 28.1452 50.7885 28.4866C50.0422 28.8279 49.1108 28.9986 47.9942 28.9986ZM59.8051 24V6.22727H72.3015V10.1151H64.6301V13.1697H71.5378V17.0575H64.6301V24H59.8051ZM78.9359 6.22727V24H74.1456V6.22727H78.9359ZM87.7984 24.243C86.3521 24.243 85.114 23.9566 84.0842 23.3839C83.0544 22.8053 82.2647 22.0011 81.7151 20.9713C81.1654 19.9358 80.8906 18.7353 80.8906 17.3699C80.8906 16.0046 81.1654 14.807 81.7151 13.7772C82.2647 12.7416 83.0544 11.9375 84.0842 11.3647C85.114 10.7862 86.3521 10.4969 87.7984 10.4969C89.2447 10.4969 90.4828 10.7862 91.5126 11.3647C92.5424 11.9375 93.3321 12.7416 93.8817 13.7772C94.4314 14.807 94.7062 16.0046 94.7062 17.3699C94.7062 18.7353 94.4314 19.9358 93.8817 20.9713C93.3321 22.0011 92.5424 22.8053 91.5126 23.3839C90.4828 23.9566 89.2447 24.243 87.7984 24.243ZM87.8331 20.7023C88.2381 20.7023 88.5881 20.5664 88.8832 20.2945C89.1782 20.0225 89.4067 19.6349 89.5687 19.1316C89.7307 18.6283 89.8117 18.0295 89.8117 17.3352C89.8117 16.6352 89.7307 16.0364 89.5687 15.5389C89.4067 15.0355 89.1782 14.6479 88.8832 14.376C88.5881 14.1041 88.2381 13.9681 87.8331 13.9681C87.405 13.9681 87.0376 14.1041 86.731 14.376C86.4244 14.6479 86.1901 15.0355 86.0281 15.5389C85.8661 16.0364 85.7851 16.6352 85.7851 17.3352C85.7851 18.0295 85.8661 18.6283 86.0281 19.1316C86.1901 19.6349 86.4244 20.0225 86.731 20.2945C87.0376 20.5664 87.405 20.7023 87.8331 20.7023ZM98.7718 24L95.4395 10.6705H100.23L101.757 18.7931H101.861L103.562 10.6705H108.214L109.984 18.7237H110.088L111.546 10.6705H116.336L113.004 24H107.832L105.957 16.8493H105.818L103.944 24H98.7718ZM118.584 24.2777C117.913 24.2777 117.337 24.0434 116.857 23.5748C116.383 23.1004 116.148 22.5247 116.154 21.8478C116.148 21.1883 116.383 20.6242 116.857 20.1556C117.337 19.687 117.913 19.4527 118.584 19.4527C119.22 19.4527 119.781 19.687 120.267 20.1556C120.759 20.6242 121.008 21.1883 121.014 21.8478C121.008 22.2991 120.889 22.7099 120.658 23.0801C120.432 23.4446 120.137 23.7368 119.773 23.9566C119.408 24.1707 119.012 24.2777 118.584 24.2777Z" fill="white"/>
</svg>
