<svg width="119" height="132" viewBox="0 0 119 132" fill="none" xmlns="http://www.w3.org/2000/svg">
<path d="M114.777 3.73851C113.015 3.73851 110.96 3.73851 109.199 3.73851C97.1616 4.39483 85.7116 7.34829 74.8489 13.2552C61.6375 20.1466 50.4811 29.9914 41.6735 43.1178C35.5081 51.9782 31.1043 61.823 27.8749 72.3242C27.5813 72.9805 27.8749 73.3087 28.1684 73.6368C30.8107 76.5903 33.453 79.5437 36.0953 82.4972C36.3889 82.8253 36.6825 83.4817 36.6825 84.138C36.6825 84.7943 36.3889 85.4506 35.8017 85.7788C35.2146 86.107 34.3338 86.1069 34.0402 85.4506C32.5723 83.8098 31.3979 82.4972 29.93 80.8564C28.1684 78.8874 26.7005 76.9184 24.939 75.2776C24.3518 74.6213 24.0582 73.6368 24.3518 72.6524C28.1684 59.8541 33.7466 48.0403 41.6735 37.5391C49.6004 26.7098 59.2887 18.1776 70.1515 11.9425C80.1335 6.03564 90.9962 2.42587 102.153 0.785061C106.85 0.128739 111.547 -0.199422 116.245 0.128739C117.713 0.128739 118.006 0.785061 118.3 2.42587C118.887 23.7563 114.19 43.446 103.914 61.823C93.6385 79.8719 79.5463 93.3265 61.931 101.859C59.2887 103.171 56.3529 104.156 53.417 105.468C52.5362 105.797 51.9491 105.797 51.3619 104.812C48.426 101.531 45.1965 97.9208 42.2607 94.6391C41.6735 93.9828 41.3799 92.9983 41.9671 92.0139C42.5542 91.0294 43.7286 91.0294 44.6094 92.0139C47.2516 94.9673 49.8939 97.9208 52.5362 100.874C53.1234 101.531 53.417 101.531 54.0042 101.202C66.922 96.28 78.3719 88.4041 88.0603 77.9029C99.5103 65.4328 107.144 50.6656 111.547 33.9293C113.896 24.7408 115.07 15.2242 115.07 5.37932C115.07 4.72299 114.777 4.39483 114.777 3.73851Z" fill="#1640C1"/>
<path d="M98.6295 42.1335C98.6295 53.291 90.7026 62.1514 80.7206 62.1514C70.7386 62.1514 62.8118 53.291 62.8118 42.1335C62.8118 31.3042 70.7386 22.1157 80.427 22.1157C90.7026 22.1157 98.6295 30.9761 98.6295 42.1335ZM95.1064 42.4617C95.1064 33.2732 88.6475 26.0537 80.427 26.0537C72.2066 26.0537 65.7476 33.2732 65.7476 42.4617C65.7476 51.6502 72.2066 58.8698 80.427 58.8698C88.6475 58.5416 95.1064 51.3221 95.1064 42.4617Z" fill="#1640C1"/>
<path d="M53.7109 126.142C55.766 124.83 57.8212 123.189 59.5827 121.548C65.4544 115.641 68.6839 108.422 70.1518 99.8894C70.4454 98.5767 71.0326 97.9204 71.9134 97.9204C73.0877 97.9204 73.6749 98.9049 73.6749 100.218C73.3813 101.858 73.0877 103.827 72.5005 105.468C69.2711 116.626 63.3993 124.83 54.2981 130.408C52.243 131.721 51.3622 131.065 51.0686 128.768C49.8943 121.876 48.7199 114.657 47.5456 107.765C47.5456 107.109 47.5456 106.453 47.5456 106.124C47.8392 105.468 48.4264 105.14 49.3071 105.14C49.8943 105.14 50.4815 105.796 50.7751 106.453C51.0686 108.422 51.3622 110.391 51.9494 112.688C52.243 117.282 53.1238 121.548 53.7109 126.142Z" fill="#1640C1"/>
<path d="M5.26845 71.9961C7.02998 72.3242 8.79151 72.6524 10.2594 72.9805C14.3697 73.965 18.4799 74.6213 22.2965 75.6058C22.5901 75.6058 22.5901 75.6058 22.8837 75.6058C23.7645 75.934 24.3517 76.9185 24.0581 77.903C23.7645 78.8874 23.1773 79.5438 22.003 79.2156C19.6543 78.5593 17.012 78.2311 14.6633 77.5748C10.8466 76.5903 7.02998 75.934 2.91975 74.9495C2.62616 74.9495 2.62616 74.9495 2.33258 74.9495C0.864638 74.6213 0.57105 73.6369 1.15823 71.9961C2.91975 68.3863 4.97487 64.7765 7.61716 61.8231C13.1953 55.2598 19.9478 51.6501 27.5811 49.6811C27.8747 49.6811 28.1683 49.6811 28.1683 49.3529C29.0491 49.0248 29.9298 49.6811 30.2234 50.6656C30.517 51.6501 29.9298 52.6346 28.7555 52.9627C26.9939 53.619 24.9388 53.9472 23.1773 54.6035C15.544 57.557 9.67227 62.8076 5.26845 70.3553C5.56204 71.3397 5.56204 71.6679 5.26845 71.9961Z" fill="#1640C1"/>
<path d="M26.1135 101.203C26.4071 100.874 26.7007 100.218 26.9943 99.8899C32.5725 93.6548 37.857 87.7479 43.4352 81.5129C45.4903 79.2157 47.2518 77.2468 49.307 74.9496C50.1877 73.9652 51.0685 73.9652 51.9492 74.6215C52.5364 75.2778 52.5364 76.5904 51.6557 77.5749C45.1967 84.7945 38.7378 92.3422 31.9853 99.5617C31.1045 100.546 30.2238 101.859 29.0494 102.843C28.4622 103.5 27.8751 103.5 27.2879 103.171C26.4071 102.843 26.1135 102.187 26.1135 101.203Z" fill="#1640C1"/>
<path d="M18.4801 109.735C19.0673 110.063 19.6545 110.391 19.9481 111.048C20.2416 111.704 19.9481 112.36 19.6545 113.016C19.3609 113.345 18.7737 114.001 18.4801 114.657C14.9571 118.595 11.434 122.861 7.61737 126.799C7.03019 127.127 6.73661 127.456 6.14943 127.456C5.56226 127.456 4.97508 127.127 4.68149 126.471C4.3879 125.487 4.3879 124.83 4.97508 124.174C7.32378 121.549 9.67248 118.923 12.0212 116.298C13.7827 114.329 15.2507 112.688 17.0122 110.719C17.5994 110.391 17.8929 110.063 18.4801 109.735Z" fill="#1640C1"/>
<path d="M15.8372 96.2798C17.3051 96.2798 18.1859 97.9206 17.5987 98.9051C17.3051 99.2332 17.3051 99.5614 17.0115 99.8896C13.1949 104.156 9.37825 108.422 5.56161 112.688L5.26803 113.016C4.38726 113.672 3.5065 114 2.91932 113.016C2.33215 112.36 2.33215 111.047 2.91932 110.391C5.8552 107.109 8.79108 103.827 11.727 100.546C12.9013 99.2332 13.7821 98.2487 14.9564 97.2643C15.25 96.6079 15.8372 96.2798 15.8372 96.2798Z" fill="#1640C1"/>
<path d="M32.2786 114.657C32.2786 114.985 31.985 115.314 31.6914 115.97C27.5812 120.564 23.7645 124.83 19.6543 129.425C18.7735 130.409 17.8928 130.409 17.012 129.425C16.4248 128.768 16.4248 127.456 17.3056 126.799C21.4158 122.205 25.2325 117.939 29.3427 113.345C29.9299 112.688 30.517 112.36 31.3978 112.688C31.985 113.016 32.2786 113.345 32.2786 114.657Z" fill="#1640C1"/>
</svg>
